<?xml version="1.0" standalone="no"?><!DOCTYPE svg PUBLIC "-//W3C//DTD SVG 1.1//EN" "http://www.w3.org/Graphics/SVG/1.1/DTD/svg11.dtd"><svg t="1748612814666" class="icon" viewBox="0 0 1024 1024" version="1.1" xmlns="http://www.w3.org/2000/svg" p-id="6570" data-spm-anchor-id="a313x.search_index.0.i3.31723a81JKU2hX" xmlns:xlink="http://www.w3.org/1999/xlink" width="200" height="200"><path d="M270.15462779 9.50659977c-54.63807431 7.52500433-100.11527284 30.10001624-136.75877145 68.37938517C71.06919033 142.83004324 36.38873677 244.58118639 22.97459839 401.29757748c-3.435328 39.75165299-2.78097966 190.08814907 0.81793573 229.02186634 8.83370104 93.73537783 24.86523167 164.24139542 50.22122322 221.66044936 17.9945757 40.5695876 35.82556289 67.56145057 62.16307865 94.06255257 39.91523923 40.24241397 85.3924389 60.85438195 147.22834281 67.23427583 109.43973487 11.1239197 272.37243358-47.11306996 451.66383769-161.46041577l23.72012123-15.21359492 29.44566899 8.01576532c78.68537028 21.42990367 115.6560425 31.08153933 116.31039085 30.42719097 0.49076098-0.32717361-6.70706863-28.79132066-16.03153064-63.1446006l-16.68587899-62.49025228 22.24783828-22.24783827c41.22393594-41.71469692 62.49025225-70.34243022 82.12069827-110.74843045 46.13154689-94.88048716 31.24512557-186.81640844-45.640787-282.84200493-16.685879-20.93914158-56.60111823-60.85438195-81.13917521-81.30276255-89.97287622-75.25004228-230.33056304-157.86150041-342.71486379-201.86641711-58.23698855-22.90218663-108.62179914-35.98915026-158.67943613-41.71469693-19.79403226-2.12663129-58.56416328-1.79945769-77.86743456 0.81793571z m-9.324462 359.23715542c24.70164431 5.23478568 40.73317497 20.77555534 50.22122323 48.58535291l4.2532637 12.59620266 0.49076098 100.93320855 0.49076099 101.09679482h-55.61959627l-0.490761-93.73537785-0.49076096-93.57179045-4.08967635-8.17935269c-5.23478568-10.6331576-12.59620265-15.54076966-23.22936026-15.54076966-4.41684996 0-10.46957135 1.14510934-13.57772573 2.45380603-8.01576532 3.27174063-21.42990367 16.35870426-32.3902349 31.5723003l-9.32446203 12.92337626V631.95531413h-55.61959626V371.85190958H168.40348352l1.14510935 6.05272027c0.49076098 3.435328 0.98152197 11.94185429 0.98152307 18.97609766v12.59620264l15.21359493-15.21359492c23.55653499-23.8837086 46.29513425-31.5723003 75.08645492-25.51958004z m244.562636 0.81793573c19.13968502 3.92608897 32.06306129 10.96033233 46.4587216 25.19240529 14.5592477 14.39566033 22.24783828 28.62773329 27.80979757 51.52991993 2.94456702 12.26902903 3.59891536 19.30327126 3.435328 42.04187054 0 15.05000869-0.49076098 27.97338494-1.14510931 28.95490803-0.65434834 1.30869671-25.02881794 1.79945769-77.2130862 1.79945768h-76.23156426l0.98152196 10.30598398c2.61739228 28.1369723 18.81251029 49.0761139 43.5141546 56.11035726 17.66740096 5.23478568 61.18155557 1.30869671 94.71690093-8.50652743l3.59891536-0.98152197v49.23970128l-8.50652632 2.61739339c-26.01034102 7.85217795-74.26851919 12.43261528-96.84353221 9.16087465-61.0179682-8.67011368-94.22613882-54.31089958-94.22613994-129.39735448 0-47.93100457 13.08696364-85.3924389 39.09730466-111.40277991 24.86523167-24.86523167 58.0734023-34.18969258 94.55331356-26.66468824z m156.55280371 3.59891424c0.32717361 0.65434834 4.90761094 37.62502058 9.97881036 82.12069827 4.90761094 44.49567657 9.65163564 85.71961252 10.30598399 91.60874653l1.3086967 10.63315761 3.59891424-13.90489824c2.12663129-7.68859171 9.48804827-33.04458325 16.35870538-56.43753197l12.59620265-42.53263153h42.53263261l9.16087468 27.80979758c5.07119831 15.21359492 13.08696364 40.89676233 17.99457458 56.76470559 4.7440247 16.03153065 8.83370104 28.95490691 8.99728728 28.6277333 0.49076098-0.49076098 5.88913402-54.31089958 12.10544166-118.92778314 2.61739228-28.30055967 5.23478568-54.96524792 5.88913403-59.38209899l0.98152197-7.68859059h25.19240528c13.90489934 0 25.1924053 0.32717361 25.1924053 0.65434835s-7.36141697 58.56416328-16.35870425 129.56094073c-8.99728728 70.99677857-16.35870426 129.23376711-16.35870537 129.39735448 0 0.32717361-14.23207296 0.49076098-31.40871293 0.49076099h-31.57230031l-8.9972873-29.93642888c-4.90761094-16.35870426-11.77826693-40.24241397-15.54076965-53.00220399-3.59891536-12.75979002-7.03424336-23.55653499-7.52500434-24.21088222-0.49076098-0.49076098-1.79945769 3.27174063-2.94456589 8.34293893-1.14510934 4.90761094-7.85217795 28.95490691-15.05000868 53.16579025-7.03424336 24.21088333-12.92337626 44.49567657-12.9233774 44.82285131 0 0.49076098-14.39566033 0.81793571-31.89947391 0.8179346-24.37446958 0-31.89947392-0.49076098-31.89947394-2.1266313 0-0.98152197-7.36141697-59.05492427-16.19511799-128.74300613-8.99728728-69.68808187-15.86794327-127.27072319-15.54076967-127.92507154 1.14510934-1.79945769 50.87557158-1.63587031 52.02068092 0z" fill="#e6e6e6" p-id="6571"></path><path d="M460.89712521 418.31063119c-15.54076966 7.1978296-26.50110199 24.21088333-29.93642998 45.96795952l-1.47228408 8.9972884h97.98864155l-1.14510933-10.30598398c-2.45380603-21.42990367-11.77826693-37.46143433-25.68316628-44.33209032-11.61468069-5.72554666-27.97338494-5.88913402-39.75165188-0.32717362z" fill="#e6e6e6" p-id="6572"></path></svg>